<?xml version="1.0" standalone="no"?>
<!DOCTYPE svg PUBLIC "-//W3C//DTD SVG 20010904//EN"
 "http://www.w3.org/TR/2001/REC-SVG-20010904/DTD/svg10.dtd">
<svg version="1.0" xmlns="http://www.w3.org/2000/svg"
 width="2308.000000pt" height="2308.000000pt" viewBox="0 0 2308.000000 2308.000000"
 preserveAspectRatio="xMidYMid meet">
<metadata>
Created by potrace 1.11, written by Peter Selinger 2001-2013
</metadata>
<g transform="translate(0.000000,2308.000000) scale(0.100000,-0.100000)"
fill="#000000" stroke="none">
<path d="M4558 15875 c-3 -4 -28 -8 -54 -10 -27 -2 -49 -5 -49 -6 0 -1 -9 -3
-20 -4 -30 -4 -98 -15 -125 -20 -14 -3 -45 -8 -70 -11 -25 -3 -64 -10 -88 -15
-24 -5 -48 -7 -53 -4 -5 4 -9 2 -9 -2 0 -5 -8 -9 -17 -9 -30 -2 -115 -14 -122
-18 -3 -2 -28 -7 -54 -10 -26 -4 -69 -11 -95 -16 -72 -13 -135 -23 -154 -24
-10 0 -18 -4 -18 -9 0 -4 -4 -6 -9 -3 -5 4 -31 2 -58 -4 -73 -15 -113 -22
-208 -35 -19 -3 -54 -9 -77 -14 -24 -5 -61 -12 -83 -15 -22 -4 -53 -9 -70 -11
-16 -3 -41 -7 -55 -9 -14 -2 -63 -11 -110 -19 -47 -9 -103 -18 -125 -22 -61
-9 -98 -15 -115 -20 -8 -2 -33 -7 -55 -10 -23 -3 -52 -8 -65 -10 -14 -3 -41
-8 -60 -11 -19 -3 -82 -14 -140 -24 -58 -10 -118 -21 -135 -24 -16 -3 -41 -7
-55 -10 -14 -3 -42 -7 -62 -10 -21 -3 -55 -9 -75 -12 -44 -6 -58 -9 -133 -23
-55 -12 -115 -21 -160 -26 -14 -2 -25 -4 -25 -5 0 -2 -21 -6 -70 -14 -22 -4
-80 -14 -130 -22 -49 -9 -103 -18 -120 -20 -16 -3 -41 -7 -55 -11 -14 -3 -35
-7 -46 -9 -33 -4 -125 -20 -174 -29 -40 -8 -62 -12 -113 -19 -27 -4 -59 -10
-70 -12 -65 -14 -139 -26 -159 -26 -10 0 -20 -4 -23 -9 -4 -5 -10 -7 -14 -4
-5 2 -43 -2 -86 -10 -42 -8 -91 -17 -109 -20 -17 -2 -42 -7 -56 -10 -14 -3
-50 -10 -80 -15 -30 -6 -66 -12 -80 -15 -14 -3 -36 -7 -50 -10 -14 -3 -36 -7
-50 -10 -14 -3 -36 -7 -50 -10 -150 -29 -183 -44 -186 -87 -1 -10 -2 -19 -4
-20 -1 -2 -3 -25 -5 -53 -2 -27 -4 -50 -5 -50 -13 0 -19 -660 -6 -690 5 -11
10 -29 11 -41 1 -11 5 -26 9 -32 4 -7 9 -20 11 -29 2 -10 11 -43 20 -73 9 -30
17 -62 19 -70 2 -8 12 -42 21 -75 10 -33 18 -62 18 -65 0 -3 4 -16 9 -30 5
-14 12 -36 15 -50 7 -34 9 -43 16 -60 5 -14 27 -90 33 -115 1 -5 9 -36 19 -69
9 -32 18 -64 20 -70 1 -6 5 -18 8 -26 4 -12 18 -61 21 -80 1 -3 12 -43 25 -90
27 -99 28 -102 31 -115 1 -5 7 -21 12 -35 5 -14 11 -32 13 -40 2 -8 9 -35 16
-60 7 -25 13 -51 15 -58 1 -7 10 -36 19 -65 9 -28 17 -59 19 -67 2 -8 5 -22 8
-30 3 -8 29 -100 58 -205 48 -172 66 -237 103 -360 6 -22 12 -44 12 -50 1 -5
4 -17 7 -25 7 -15 85 -289 93 -325 6 -26 56 -206 63 -225 3 -8 6 -19 8 -25 3
-15 71 -258 95 -340 11 -38 21 -77 23 -86 9 -35 29 -105 34 -119 3 -8 7 -19 8
-25 1 -5 3 -13 4 -17 1 -5 3 -11 4 -15 1 -5 5 -19 9 -33 4 -14 12 -41 17 -60
5 -19 21 -75 35 -125 15 -49 28 -99 31 -110 3 -11 6 -24 8 -30 1 -5 10 -37 20
-70 10 -33 20 -67 21 -75 2 -8 4 -15 5 -15 1 0 3 -11 6 -25 2 -14 7 -32 11
-40 3 -8 8 -24 10 -34 2 -11 10 -39 18 -62 8 -24 17 -54 19 -68 4 -22 16 -63
34 -116 3 -8 7 -24 9 -34 2 -11 17 -67 34 -125 17 -58 33 -113 35 -121 8 -32
24 -90 64 -230 23 -80 44 -155 47 -167 3 -13 12 -23 19 -24 22 -2 54 -1 57 1
1 1 11 3 22 4 51 7 98 17 106 22 5 2 21 7 36 9 39 6 248 61 260 68 5 3 20 8
34 10 13 3 42 10 64 16 22 6 42 10 45 9 3 -1 14 4 26 10 11 6 32 13 45 16 13
3 49 12 79 21 53 15 78 22 110 30 8 2 15 4 15 5 0 1 7 3 15 5 8 1 40 10 70 20
30 9 64 19 75 21 11 2 65 17 120 34 55 16 109 32 120 34 11 3 39 11 63 20 23
8 43 15 45 14 1 0 29 7 62 17 33 10 69 20 80 22 11 2 37 10 58 18 20 8 37 12
37 9 0 -4 6 -2 13 4 7 6 24 13 37 16 26 4 192 51 290 81 30 10 62 19 70 20 8
2 15 4 15 5 0 1 7 3 15 5 20 5 90 26 240 70 69 20 130 38 135 40 6 1 17 5 25
8 16 6 89 26 105 28 6 0 17 5 26 10 9 4 27 10 40 13 13 2 43 11 67 20 23 8 43
15 45 14 1 0 29 7 62 17 33 9 60 16 60 15 0 -1 14 4 30 10 17 7 37 13 45 15 8
2 38 10 65 19 110 34 391 117 415 122 14 2 36 9 50 14 14 5 66 21 115 35 50
15 151 45 225 67 74 22 149 43 165 48 30 8 177 52 307 91 37 11 69 20 70 19 2
0 30 9 63 20 33 12 72 23 87 25 15 2 35 8 45 13 10 5 55 19 100 32 76 21 87
27 150 89 138 136 363 390 363 410 0 6 4 11 8 11 4 0 13 14 19 31 9 23 9 40
-1 72 -12 39 -130 335 -160 402 -8 17 -30 71 -51 120 -20 50 -42 104 -50 120
-7 17 -36 86 -65 155 -28 69 -68 166 -89 215 -51 120 -54 129 -53 138 1 4 -2
7 -7 7 -5 0 -11 10 -14 23 -5 20 -78 198 -111 272 -8 17 -26 59 -41 95 -14 36
-34 81 -43 100 -9 19 -15 39 -14 44 2 4 -3 15 -10 23 -7 9 -18 29 -24 47 -30
81 -100 241 -106 244 -5 2 -8 10 -8 18 0 7 -11 38 -25 68 -14 30 -25 58 -25
62 0 4 -9 25 -19 48 -46 99 -71 157 -71 165 0 5 -7 22 -15 38 -8 15 -22 46
-31 68 -35 85 -56 131 -69 158 -8 16 -15 33 -15 38 0 4 -11 32 -24 61 -14 29
-37 82 -51 118 -31 75 -48 115 -72 168 -10 20 -18 39 -18 42 0 3 -11 27 -23
54 -12 27 -22 50 -22 52 0 2 -11 27 -24 56 -57 127 -66 147 -66 153 0 3 -10
27 -21 53 -12 26 -30 66 -40 89 -24 54 -41 95 -45 108 -1 6 -16 42 -34 80 -17
39 -35 79 -39 90 -5 11 -21 46 -35 78 -14 32 -26 60 -26 63 0 3 -9 26 -21 52
-35 79 -46 104 -79 182 -18 41 -39 91 -48 110 -8 19 -16 40 -18 45 -7 36 -89
188 -107 199 -23 14 -98 21 -109 11z"/>
<path d="M12788 14665 c-2 -2 -28 -7 -58 -10 -30 -3 -95 -13 -145 -21 -49 -8
-101 -17 -115 -19 -52 -7 -116 -17 -135 -21 -11 -2 -40 -7 -65 -10 -25 -3 -47
-8 -50 -9 -5 -3 -68 -14 -120 -20 -14 -2 -54 -9 -90 -15 -36 -6 -77 -13 -92
-15 -15 -2 -31 -6 -35 -8 -4 -3 -33 -8 -63 -11 -30 -4 -86 -13 -125 -20 -70
-14 -138 -26 -185 -31 -14 -2 -25 -4 -25 -5 0 -1 -11 -3 -25 -5 -14 -1 -38 -5
-55 -9 -16 -3 -48 -8 -70 -12 -22 -3 -60 -10 -85 -15 -25 -5 -61 -11 -80 -13
-43 -6 -148 -24 -175 -30 -13 -4 -105 -19 -130 -22 -11 -1 -21 -3 -22 -4 -2
-2 -11 -3 -20 -4 -24 -3 -113 -18 -138 -23 -11 -2 -45 -8 -75 -13 -30 -6 -66
-12 -80 -16 -14 -3 -36 -7 -50 -8 -23 -3 -93 -14 -130 -21 -97 -18 -140 -26
-165 -29 -16 -3 -30 -5 -30 -7 0 -1 -13 -3 -30 -5 -35 -3 -70 -9 -105 -17 -14
-4 -43 -9 -64 -12 -21 -3 -48 -8 -60 -10 -12 -3 -37 -7 -56 -10 -54 -7 -103
-15 -130 -21 -14 -3 -36 -8 -50 -10 -49 -8 -75 -13 -75 -14 0 -1 -13 -3 -30
-5 -34 -4 -88 -12 -125 -20 -50 -10 -141 -26 -178 -31 -65 -9 -87 -13 -87 -14
0 -1 -9 -3 -20 -5 -40 -7 -110 -19 -120 -20 -5 -1 -30 -5 -55 -10 -25 -4 -54
-9 -65 -11 -11 -2 -30 -5 -41 -8 -12 -2 -39 -7 -60 -10 -22 -4 -46 -8 -54 -11
-8 -2 -33 -6 -55 -10 -22 -3 -47 -7 -55 -10 -8 -2 -33 -6 -54 -10 -21 -3 -48
-7 -60 -10 -35 -8 -80 -16 -101 -19 -11 -1 -38 -8 -60 -14 -22 -6 -53 -13 -70
-16 -66 -11 -75 -17 -86 -59 -19 -71 -29 -247 -32 -532 -1 -211 4 -302 18
-325 3 -5 15 -42 26 -82 23 -86 20 -73 59 -213 18 -60 33 -117 35 -125 2 -8
10 -36 18 -62 8 -27 13 -48 11 -48 -3 0 0 -8 5 -18 6 -11 12 -30 15 -43 3 -13
17 -64 32 -114 14 -49 28 -101 31 -115 2 -14 9 -34 14 -45 5 -11 16 -47 24
-80 14 -58 37 -141 70 -255 9 -30 18 -62 20 -70 2 -8 4 -15 5 -15 1 0 3 -9 5
-20 4 -21 34 -130 43 -155 3 -8 6 -20 7 -26 2 -6 11 -38 21 -70 9 -33 18 -64
20 -70 1 -6 10 -38 19 -70 10 -33 19 -66 20 -74 2 -8 12 -44 23 -80 17 -56 26
-89 38 -135 1 -5 12 -44 24 -85 11 -41 30 -108 41 -148 11 -40 25 -92 33 -115
7 -23 32 -112 56 -197 23 -85 45 -162 48 -170 3 -8 6 -19 7 -25 6 -27 47 -172
52 -185 7 -17 12 -37 17 -65 2 -11 12 -44 21 -74 9 -30 18 -62 20 -70 5 -20
51 -182 68 -236 6 -22 10 -40 8 -40 -3 0 1 -9 7 -21 11 -20 16 -38 28 -99 3
-16 9 -39 14 -50 8 -18 57 -195 65 -235 2 -8 4 -16 5 -17 2 -2 3 -6 4 -10 3
-13 35 -125 56 -193 11 -36 21 -76 24 -90 3 -14 14 -53 25 -87 10 -35 17 -63
14 -63 -3 0 -1 -6 5 -12 6 -7 14 -31 18 -53 4 -22 15 -64 25 -94 10 -29 16
-57 14 -61 -3 -5 -1 -11 5 -15 5 -3 10 -16 10 -29 0 -12 3 -26 7 -30 4 -3 8
-16 10 -27 2 -11 12 -48 23 -82 11 -34 21 -71 23 -82 6 -42 16 -48 79 -41 32
3 62 7 66 10 6 4 67 16 102 20 9 1 20 5 26 9 6 3 26 9 45 12 19 3 59 13 89 22
30 9 62 17 70 18 9 0 20 4 25 7 8 5 135 42 185 53 8 2 85 24 170 49 85 24 158
42 162 40 4 -3 8 -1 8 4 0 5 24 15 53 21 59 13 82 19 82 21 0 1 7 3 15 5 77
20 253 72 285 85 17 6 32 11 35 11 3 -1 30 7 60 16 30 9 60 17 65 19 6 1 66
19 135 39 161 48 298 87 345 99 6 2 18 6 27 10 9 4 22 9 30 10 22 4 102 27
118 33 8 3 20 7 25 9 14 3 216 62 295 86 36 10 72 21 80 23 8 2 76 22 150 45
74 23 144 43 154 45 11 3 47 13 80 24 34 11 75 23 91 27 41 10 45 11 48 14 1
1 9 3 18 5 15 3 92 26 271 81 43 13 88 25 100 28 13 2 34 9 48 14 26 11 79 27
190 57 36 9 72 20 80 23 19 7 17 6 70 21 59 17 141 41 160 48 8 4 24 8 35 10
11 2 49 13 85 25 36 12 74 23 85 25 11 2 27 6 35 10 8 3 17 7 20 7 36 8 108
29 120 35 8 4 49 16 90 27 41 10 78 22 81 27 3 5 9 8 13 7 3 -1 21 2 38 6 36
7 62 29 165 136 7 7 17 18 23 23 6 6 29 31 53 56 108 117 147 160 147 165 0 3
10 15 23 27 31 30 85 112 93 141 3 14 -5 48 -20 86 -14 35 -26 69 -26 77 0 7
-4 13 -10 13 -5 0 -10 6 -10 14 0 12 -78 209 -115 291 -7 17 -23 55 -35 85
-12 30 -28 69 -35 85 -38 83 -187 443 -191 460 -2 11 -8 21 -14 23 -5 2 -10
10 -10 17 0 7 -32 89 -70 182 -94 224 -98 234 -115 266 -8 16 -15 37 -15 48 0
10 -4 19 -10 19 -5 0 -10 8 -10 18 0 10 -3 21 -6 25 -8 8 -73 157 -68 157 2 0
-8 22 -21 49 -14 27 -25 56 -25 64 0 8 -3 17 -7 19 -5 2 -19 30 -32 63 -13 33
-37 88 -53 123 -15 34 -28 65 -28 68 0 3 -6 20 -14 37 -43 95 -66 148 -66 152
0 3 -10 27 -21 53 -26 57 -30 66 -114 267 -37 88 -72 164 -76 169 -5 6 -9 20
-9 33 0 13 -4 23 -10 23 -5 0 -10 6 -10 14 0 8 -22 64 -50 125 -27 61 -50 113
-50 116 0 2 -13 34 -30 70 -16 36 -30 68 -30 71 0 3 -12 29 -26 58 -14 28 -26
53 -26 56 -1 7 -17 49 -33 85 -7 16 -34 80 -60 140 -26 61 -53 124 -61 140
-35 79 -96 221 -98 230 -1 6 -12 30 -23 55 -12 25 -33 74 -48 110 -30 75 -41
100 -84 192 -17 37 -31 71 -31 76 0 20 -80 78 -92 67z"/>
<path d="M21078 13675 c-3 -2 -70 -12 -148 -21 -19 -2 -46 -6 -60 -9 -44 -9
-94 -17 -125 -20 -16 -2 -30 -5 -30 -6 0 -1 -9 -3 -20 -4 -11 -1 -38 -6 -60
-9 -22 -4 -53 -9 -70 -12 -16 -2 -41 -6 -55 -9 -14 -3 -47 -8 -75 -11 -27 -4
-57 -10 -65 -14 -8 -4 -23 -6 -32 -5 -10 2 -20 -1 -24 -6 -3 -5 -9 -7 -13 -4
-5 2 -42 -2 -82 -9 -41 -8 -92 -17 -114 -20 -22 -3 -51 -8 -65 -11 -14 -3 -38
-7 -55 -9 -16 -2 -46 -7 -65 -11 -19 -3 -100 -17 -180 -31 -80 -13 -152 -26
-160 -29 -15 -4 -94 -16 -140 -21 -14 -1 -25 -3 -25 -4 0 -3 -61 -14 -142 -25
-21 -3 -51 -9 -68 -12 -16 -4 -37 -7 -45 -9 -37 -5 -96 -16 -110 -19 -8 -2
-33 -7 -55 -10 -23 -3 -52 -7 -65 -10 -13 -3 -42 -7 -65 -10 -22 -3 -47 -8
-55 -10 -8 -2 -30 -7 -47 -10 -18 -3 -48 -7 -65 -10 -18 -3 -70 -13 -115 -21
-46 -8 -87 -12 -93 -9 -5 3 -10 2 -10 -3 0 -5 -39 -15 -87 -22 -49 -6 -97 -14
-108 -16 -26 -6 -45 -9 -130 -23 -38 -7 -80 -14 -92 -16 -39 -8 -118 -22 -173
-31 -14 -2 -41 -7 -60 -10 -19 -4 -45 -8 -57 -9 -12 -2 -36 -6 -53 -10 -17 -4
-41 -8 -53 -10 -51 -6 -136 -21 -147 -25 -6 -3 -10 -3 -80 -14 -30 -5 -64 -10
-75 -13 -11 -2 -33 -6 -50 -8 -16 -3 -41 -7 -55 -10 -45 -9 -95 -17 -125 -20
-16 -2 -30 -4 -30 -5 0 -1 -11 -4 -25 -6 -50 -9 -246 -46 -265 -51 -11 -2 -38
-6 -60 -9 -21 -3 -43 -8 -47 -10 -5 -3 -22 -7 -38 -9 -16 -2 -48 -9 -72 -16
-24 -7 -49 -14 -57 -15 -22 -4 -30 -17 -35 -54 -3 -19 -5 -35 -6 -35 -1 0 -3
-13 -5 -30 -23 -245 -28 -665 -10 -735 7 -28 11 -50 9 -50 -3 0 2 -13 11 -30
9 -16 13 -30 11 -30 -3 0 0 -15 5 -32 14 -44 39 -128 45 -153 3 -11 6 -24 8
-30 2 -5 6 -23 10 -40 4 -16 10 -37 13 -45 7 -18 10 -29 17 -55 2 -11 9 -33
16 -50 6 -16 11 -32 11 -35 0 -3 4 -23 10 -45 6 -22 12 -44 13 -50 1 -5 5 -16
9 -22 5 -7 6 -13 2 -13 -3 0 1 -16 9 -35 8 -19 13 -35 11 -35 -2 0 2 -18 10
-40 8 -22 15 -44 16 -48 1 -4 3 -11 4 -17 2 -5 8 -32 15 -60 6 -27 16 -59 20
-70 10 -23 19 -58 26 -100 3 -16 11 -36 16 -42 6 -7 8 -13 4 -13 -3 0 0 -16 8
-35 8 -19 13 -35 11 -35 -3 0 0 -12 6 -27 6 -16 13 -41 16 -58 3 -16 9 -38 14
-47 5 -10 7 -18 5 -18 -3 0 -1 -12 5 -27 10 -25 84 -283 94 -323 4 -18 59
-214 80 -285 9 -27 17 -59 19 -70 2 -11 9 -33 16 -50 6 -16 11 -32 11 -35 0
-3 4 -23 10 -45 6 -22 13 -47 14 -55 2 -8 4 -16 5 -17 2 -2 4 -7 5 -13 1 -5 3
-11 5 -12 1 -2 3 -10 5 -18 4 -20 90 -329 114 -410 11 -36 25 -85 31 -110 6
-25 20 -74 30 -110 51 -172 100 -350 100 -364 0 -9 5 -16 11 -16 5 0 8 -4 5
-8 -3 -5 8 -52 23 -105 16 -53 27 -97 24 -97 -3 0 0 -7 7 -15 7 -8 10 -15 6
-15 -3 0 0 -16 8 -35 8 -19 12 -35 9 -35 -3 0 0 -6 6 -13 6 -8 8 -17 4 -20 -3
-4 -1 -13 6 -21 6 -8 11 -18 10 -22 -1 -5 0 -16 4 -24 3 -8 17 -58 31 -110 15
-52 35 -124 45 -160 11 -36 23 -78 27 -95 4 -16 8 -34 10 -40 18 -62 36 -123
39 -135 14 -56 68 -246 85 -300 11 -36 20 -73 20 -81 0 -9 3 -19 7 -23 4 -4 9
-17 10 -29 2 -12 12 -47 22 -77 18 -54 19 -55 57 -54 60 1 109 10 239 44 66
17 127 33 135 35 8 1 41 11 74 20 32 9 65 18 72 19 7 1 17 5 20 9 4 4 18 7 30
7 13 0 26 5 29 10 4 6 10 8 14 6 4 -3 26 1 48 9 23 8 52 16 65 19 12 3 118 32
233 66 116 34 220 63 232 66 12 2 33 8 45 13 13 5 25 9 28 9 3 0 12 3 20 6 8
2 47 14 85 25 39 11 133 39 210 61 77 23 145 42 150 44 6 1 16 5 23 9 6 5 16
6 21 2 5 -3 12 -1 15 4 3 5 23 12 43 17 42 8 42 8 63 17 8 3 42 13 75 22 72
19 76 20 95 28 12 5 92 28 110 32 3 0 39 11 80 23 159 47 175 51 182 52 4 0
27 8 50 16 24 9 52 17 62 19 10 3 33 9 51 15 18 6 41 12 51 14 10 2 39 11 64
19 73 24 187 57 206 62 11 2 48 13 84 25 36 12 72 23 80 24 8 1 22 5 30 8 18
6 61 19 160 48 41 12 86 25 100 30 14 5 39 12 55 16 40 10 45 11 48 14 1 1 9
3 17 5 8 1 42 11 75 21 33 10 63 19 68 20 4 1 9 3 12 4 3 1 8 3 13 4 20 5 129
38 142 43 8 3 20 7 25 8 6 1 12 3 15 4 3 2 12 4 20 6 21 4 259 74 290 84 36
13 143 45 156 47 13 2 128 36 209 62 28 9 55 17 61 18 7 1 43 12 82 24 66 21
76 28 174 129 246 252 364 403 353 450 -9 39 -117 312 -161 409 -13 29 -24 59
-24 67 0 8 -4 15 -10 15 -5 0 -9 3 -9 8 1 4 0 10 -1 15 -1 4 -3 10 -4 15 -1 4
-9 23 -18 42 -9 19 -35 80 -57 135 -23 55 -47 111 -53 125 -7 14 -12 27 -13
30 -6 19 -68 168 -88 210 -11 25 -20 50 -19 56 1 6 -5 17 -13 24 -8 7 -15 19
-15 26 0 8 -10 36 -21 62 -30 66 -41 93 -90 212 -24 58 -46 106 -50 108 -5 2
-5 10 -2 18 3 8 0 14 -6 14 -6 0 -11 7 -11 15 0 8 -4 23 -10 33 -18 32 -102
237 -103 250 0 6 -4 12 -9 12 -4 0 -7 3 -6 8 1 4 -6 24 -15 46 -9 21 -17 42
-17 47 0 5 -5 9 -12 9 -6 0 -9 2 -6 6 3 3 -10 42 -29 87 -19 45 -66 154 -103
242 -37 88 -77 181 -89 207 -11 26 -21 50 -21 54 0 4 -9 26 -19 48 -11 23 -40
91 -66 151 -63 149 -125 294 -141 330 -25 58 -47 110 -49 115 0 3 -11 27 -23
54 -12 27 -22 50 -22 52 0 2 -11 27 -24 56 -13 29 -70 161 -126 293 -56 132
-112 263 -124 290 -13 28 -34 77 -47 110 -13 33 -28 63 -32 66 -5 3 -8 9 -8
13 1 10 -9 38 -29 81 -10 22 -30 69 -45 105 -26 63 -65 142 -83 168 -8 12 -67
34 -74 27z"/>
</g>
</svg>
